<?xml version="1.0" encoding="UTF-8"?>
<svg version="1.1" xmlns="http://www.w3.org/2000/svg" width="512" height="512">
<path d="M0 0 C1.1168144 -0.00367669 2.23362879 -0.00735338 3.38428605 -0.01114148 C7.12868275 -0.02215931 10.87305168 -0.02601898 14.61746216 -0.02983093 C17.3017137 -0.03609712 19.98596231 -0.04273161 22.67021179 -0.04974365 C30.72718031 -0.0694721 38.78415001 -0.07957048 46.84113663 -0.08847144 C50.64155005 -0.09286099 54.44196209 -0.09822613 58.24237442 -0.10346031 C70.88708392 -0.12047031 83.53179258 -0.13496192 96.17651176 -0.14220905 C99.45516842 -0.14411874 102.73382506 -0.14603911 106.01248169 -0.147995 C107.23472532 -0.14872061 107.23472532 -0.14872061 108.48166074 -0.14946087 C121.66546104 -0.15775163 134.84917034 -0.1830734 148.03293096 -0.21557567 C161.58882873 -0.24872103 175.14468038 -0.26666462 188.70061886 -0.26985329 C196.30343912 -0.27201168 203.90612673 -0.28066113 211.50890732 -0.30631447 C217.98725738 -0.32812405 224.46544256 -0.33602196 230.94382517 -0.32634769 C234.24312981 -0.32183215 237.54202737 -0.32575246 240.84129906 -0.34310913 C269.76112711 -0.48665879 292.68018455 5.25306144 313.94607544 26.14717102 C314.55966919 26.74787415 315.17326294 27.34857727 315.80545044 27.96748352 C330.38134559 43.41258343 337.20642101 63.93894578 337.28079224 84.86811829 C337.29240733 86.00801869 337.30402243 87.1479191 337.31598949 88.32236195 C337.35196683 92.11941861 337.37386614 95.9164126 337.39529419 99.71357727 C337.41092729 101.74712603 337.42799989 103.78065913 337.44525981 105.81419468 C337.51382933 113.90495251 337.5636206 121.99575869 337.60788345 130.08668137 C337.62895562 133.93602861 337.65229917 137.7853578 337.67647964 141.63468665 C337.96930621 188.27805143 338.0359247 234.92136785 337.79099768 281.5650869 C337.76413813 286.81453573 337.74668495 292.06396312 337.73303223 297.3134613 C337.71593579 303.72119854 337.68391472 310.12866391 337.63323617 316.53622675 C337.60765637 319.79599086 337.58973114 323.05544211 337.58456802 326.31531143 C337.52705773 355.08879566 331.72915476 377.99428602 310.94607544 399.14717102 C310.34537231 399.76076477 309.74466919 400.37435852 309.12576294 401.00654602 C293.84171623 415.43045157 273.58025112 422.29800375 252.89215088 422.29434204 C251.77533648 422.29801873 250.65852209 422.30169542 249.50786483 422.30548352 C245.76346813 422.31650135 242.0190992 422.32036102 238.27468872 422.32417297 C235.59043718 422.33043916 232.90618857 422.33707365 230.22193909 422.34408569 C222.16497057 422.36381414 214.10800087 422.37391252 206.05101424 422.38281348 C202.25060083 422.38720303 198.45018879 422.39256817 194.64977646 422.39780235 C182.00506696 422.41481235 169.3603583 422.42930396 156.71563911 422.43655109 C153.43698246 422.43846079 150.15832582 422.44038115 146.87966919 422.44233704 C146.0648401 422.44282078 145.25001102 422.44330452 144.41049014 422.44380292 C131.22668983 422.45209367 118.04298054 422.47741544 104.85921992 422.50991771 C91.30332215 422.54306307 77.7474705 422.56100666 64.19153202 422.56419533 C56.58871176 422.56635372 48.98602415 422.57500317 41.38324356 422.60065651 C34.9048935 422.62246609 28.42670832 422.630364 21.94832571 422.62068973 C18.64902107 422.61617419 15.35012351 422.6200945 12.05085182 422.63745117 C-16.86897623 422.78100083 -39.78803367 417.0412806 -61.05392456 396.14717102 C-61.66751831 395.5464679 -62.28111206 394.94576477 -62.91329956 394.32685852 C-77.42049897 378.95455089 -84.3838307 358.43054598 -84.3213501 337.57426453 C-84.32588121 336.44994888 -84.33041232 335.32563323 -84.33508074 334.16724741 C-84.34768283 330.42141776 -84.34610705 326.67573429 -84.3444519 322.92988586 C-84.35043982 320.23518846 -84.35719003 317.54050226 -84.36480713 314.84580994 C-84.38136721 308.29787947 -84.38691443 301.74998502 -84.38803189 295.20203535 C-84.38898485 289.87441208 -84.39310754 284.5468006 -84.39943314 279.21918106 C-84.4170329 264.08614932 -84.42627414 248.95314586 -84.42477219 233.82010381 C-84.42469228 233.00555064 -84.42461236 232.19099747 -84.42453003 231.35176086 C-84.42440739 230.12842432 -84.42440739 230.12842432 -84.42428227 228.88037391 C-84.42347001 215.67418955 -84.44259583 202.46811941 -84.47080676 189.26196806 C-84.49960162 175.674297 -84.5133434 162.08668153 -84.51161921 148.49897921 C-84.51095752 140.88169503 -84.51635204 133.26453056 -84.53797531 125.64727402 C-84.55627441 119.15986251 -84.56046353 112.67262498 -84.54695646 106.18519871 C-84.54047003 102.88182304 -84.54236666 99.578846 -84.55766296 96.27548981 C-84.68286907 67.34809102 -78.95504998 44.42020259 -58.05392456 23.14717102 C-57.45322144 22.53357727 -56.85251831 21.91998352 -56.23361206 21.28779602 C-40.94956535 6.86389047 -20.68810024 -0.00366171 0 0 Z " fill="#F9970B" transform="translate(127.05392456054688,39.85282897949219)"/>
<path d="M0 0 C1.37326882 0.0009218 2.74653906 0.00051379 4.11980724 -0.00109577 C7.75528688 -0.00176547 11.39046259 0.01545978 15.02587128 0.03673553 C18.45316898 0.05398283 21.88039751 0.05463362 25.30773926 0.0567627 C35.29203152 0.0724251 45.27626876 0.11430891 55.26049805 0.15307617 C77.59737305 0.21495117 99.93424805 0.27682617 122.94799805 0.34057617 C122.94799805 68.98057617 122.94799805 137.62057617 122.94799805 208.34057617 C54.30799805 208.34057617 -14.33200195 208.34057617 -85.05200195 208.34057617 C-85.05200195 209.66057617 -85.05200195 210.98057617 -85.05200195 212.34057617 C-16.41200195 212.34057617 52.22799805 212.34057617 122.94799805 212.34057617 C122.94799805 280.98057617 122.94799805 349.62057617 122.94799805 420.34057617 C100.83799805 420.42307617 78.72799805 420.50557617 55.94799805 420.59057617 C48.99350586 420.62699219 42.03901367 420.6634082 34.8737793 420.70092773 C26.31323242 420.71899414 26.31323242 420.71899414 22.29248047 420.72235107 C19.51305087 420.72604419 16.73393383 420.7408976 13.95458984 420.76287842 C-16.17504163 420.99053319 -16.17504163 420.99053319 -29.05200195 416.34057617 C-30.9100647 415.67279144 -30.9100647 415.67279144 -32.80566406 414.99151611 C-54.20116725 406.89402545 -69.62982058 390.221263 -79.4777832 369.94995117 C-83.12346434 361.59111899 -86.16667244 352.58536253 -86.18622303 343.39157963 C-86.19068087 342.41490741 -86.19513872 341.43823519 -86.19973165 340.43196684 C-86.19954729 339.3666152 -86.19936292 338.30126356 -86.19917297 337.20362854 C-86.20284966 336.06583968 -86.20652635 334.92805081 -86.21031445 333.7557835 C-86.22134745 329.93451518 -86.22519453 326.11327405 -86.22900391 322.29199219 C-86.23473796 319.55538196 -86.24190314 316.81877579 -86.24891663 314.08216858 C-86.2686583 305.86313042 -86.27874513 297.64409108 -86.28764442 289.42503515 C-86.29203179 285.55014507 -86.2973975 281.67525636 -86.30263329 277.80036736 C-86.3196446 264.91121104 -86.3341368 252.02205556 -86.34138203 239.13288975 C-86.34329178 235.78976503 -86.34521213 232.44664032 -86.34716797 229.10351562 C-86.34765171 228.27264334 -86.34813545 227.44177106 -86.34863385 226.58572083 C-86.35692679 213.13861238 -86.38225168 199.69159309 -86.41474865 186.24452353 C-86.4478739 172.4242442 -86.46583579 158.60401009 -86.46902627 144.78369087 C-86.4711865 137.030014 -86.47986338 129.27646711 -86.50548744 121.52282906 C-86.52726942 114.91667211 -86.5352083 108.31067671 -86.52552066 101.70448793 C-86.52099717 98.33854993 -86.52496006 94.97321302 -86.5422821 91.60727692 C-86.66812608 65.69457065 -86.66812608 65.69457065 -82.05200195 54.34057617 C-81.77701528 53.62911721 -81.5020286 52.91765825 -81.21870899 52.18463993 C-72.80029585 31.99511877 -56.37662084 15.26797478 -36.28686523 6.65771484 C-24.39275023 1.83168314 -12.8195751 -0.11189436 0 0 Z " fill="#F9970B" transform="translate(130.052001953125,39.659423828125)"/>
<path d="M0 0 C67.98 0 135.96 0 206 0 C206.0825 22.130625 206.165 44.26125 206.25 67.0625 C206.28641602 74.02609619 206.32283203 80.98969238 206.36035156 88.16430664 C206.37841797 96.72937012 206.37841797 96.72937012 206.3817749 100.7509613 C206.38547128 103.53376774 206.40033814 106.31626268 206.42230225 109.09898376 C206.45008596 112.66722339 206.45790191 116.23502117 206.4522891 119.80335891 C206.45400498 121.70566365 206.47527723 123.60792147 206.497715 125.51009464 C206.39160787 147.89837731 196.44027392 168.14055689 181.3125 184.25 C164.2061501 200.5010324 142.83761892 208.55230502 119.31518555 208.34057617 C117.33535408 208.34111858 117.33535408 208.34111858 115.31552601 208.34167194 C111.78777965 208.34234133 108.26034684 208.32512303 104.73267365 208.30384064 C101.40630517 208.2865865 98.07994785 208.28594218 94.75354004 208.28381348 C85.06481949 208.26815443 75.37615563 208.22627063 65.6875 208.1875 C44.010625 208.125625 22.33375 208.06375 0 208 C0 139.36 0 70.72 0 0 Z " fill="#DDDDDD" transform="translate(257,252)"/>
<path d="M0 0 C1.32 0 2.64 0 4 0 C4 68.64 4 137.28 4 208 C71.98 208 139.96 208 210 208 C210 163.45 210 118.9 210 73 C210.33 73 210.66 73 211 73 C211.7153072 142.47394783 212.22941749 211.94744331 211.84635669 281.42508811 C211.81822389 286.67123026 211.80016668 291.91734593 211.78640747 297.1635437 C211.76924341 303.57186057 211.7374022 309.97990793 211.6869601 316.38805258 C211.66150267 319.64820767 211.64366106 322.90805278 211.63852692 326.16831207 C211.58098667 354.94171359 205.78300719 377.84718842 185 399 C184.39929688 399.61359375 183.79859375 400.2271875 183.1796875 400.859375 C167.89564079 415.28328055 147.63417568 422.15083273 126.94607544 422.14717102 C125.82926104 422.15084771 124.71244665 422.1545244 123.56178939 422.1583125 C119.81739269 422.16933033 116.07302376 422.17319 112.32861328 422.17700195 C109.64436174 422.18326814 106.96011313 422.18990263 104.27586365 422.19691467 C96.21889513 422.21664312 88.16192543 422.2267415 80.10493881 422.23564246 C76.30452539 422.24003201 72.50411335 422.24539715 68.70370102 422.25063133 C56.05899152 422.26764133 43.41428286 422.28213294 30.76956367 422.28938007 C27.49090702 422.29128977 24.21225038 422.29321013 20.93359375 422.29516602 C20.11876466 422.29564976 19.30393558 422.2961335 18.4644147 422.2966319 C5.28061439 422.30492265 -7.9030949 422.33024442 -21.08685552 422.36274669 C-34.64275329 422.39589205 -48.19860494 422.41383564 -61.75454342 422.41702431 C-69.35736368 422.4191827 -76.96005129 422.42783215 -84.56283188 422.45348549 C-91.04118194 422.47529507 -97.51936712 422.48319298 -103.99774973 422.47351871 C-107.29705437 422.46900317 -110.59595193 422.47292348 -113.89522362 422.49028015 C-142.81505167 422.63382981 -165.73410911 416.89410958 -187 396 C-187.61359375 395.39929688 -188.2271875 394.79859375 -188.859375 394.1796875 C-203.39704969 378.77508726 -210.35704271 358.21848353 -210.24050903 337.31942749 C-210.24307231 335.61602044 -210.24307231 335.61602044 -210.24568737 333.87820113 C-210.24896642 330.0950049 -210.2380046 326.31198832 -210.22705078 322.52880859 C-210.22537053 319.8081552 -210.22671596 317.08750524 -210.22793579 314.36685181 C-210.22898139 308.5207574 -210.22273886 302.67470785 -210.21146011 296.82862473 C-210.19516388 288.37631338 -210.1899929 279.92402359 -210.18748413 271.47169824 C-210.18311348 257.75634775 -210.16982152 244.04102113 -210.15087891 230.32568359 C-210.13250377 217.00732543 -210.11835527 203.68897376 -210.10986328 190.37060547 C-210.10907511 189.13793015 -210.10907511 189.13793015 -210.10827102 187.8803523 C-210.10566083 183.75745502 -210.10313344 179.6345577 -210.10064721 175.51166034 C-210.07993434 141.34108972 -210.04472602 107.17054744 -210 73 C-209.67 73 -209.34 73 -209 73 C-208.99940291 73.57619585 -208.99880582 74.1523917 -208.99819064 74.74604803 C-208.96224937 108.9421418 -208.90553794 143.13813392 -208.82207905 177.33414439 C-208.81206232 181.44566296 -208.80221807 185.55718193 -208.79248047 189.66870117 C-208.7905391 190.48718558 -208.78859772 191.30566998 -208.78659752 192.14895695 C-208.75562767 205.37903236 -208.7386109 218.60909045 -208.72680578 231.83919526 C-208.71436817 245.42771602 -208.68680811 259.0161463 -208.64538693 272.60460991 C-208.620326 280.98061041 -208.60687729 289.35646072 -208.60857043 297.73249923 C-208.60860032 303.4864607 -208.59386101 309.24026987 -208.56783572 314.99417192 C-208.55327521 318.30751072 -208.5471116 321.6202771 -208.55419731 324.93367958 C-208.59470549 344.31444728 -208.59470549 344.31444728 -204 363 C-203.40236658 364.64849111 -203.40236658 364.64849111 -202.79265976 366.33028507 C-194.81634047 387.40287507 -178.63376866 402.90306834 -158.53515625 412.49609375 C-149.36949134 416.39529926 -140.11623848 419.09351787 -130.11538696 419.15821838 C-128.96519388 419.16799241 -127.8150008 419.17776644 -126.62995338 419.18783665 C-125.37744474 419.1936069 -124.1249361 419.19937716 -122.83447266 419.20532227 C-121.47206517 419.21504689 -120.10966063 419.22519286 -118.74725914 419.23572445 C-115.10943309 419.26268835 -111.47159506 419.28390991 -107.83372498 419.30391693 C-104.41606142 419.32359017 -100.99844342 419.34847561 -97.58081055 419.3729248 C-87.59557476 419.44133623 -77.61028328 419.50141222 -67.625 419.5625 C-45.30875 419.706875 -22.9925 419.85125 0 420 C0 351.36 0 282.72 0 212 C-68.64 212 -137.28 212 -208 212 C-208 210.68 -208 209.36 -208 208 C-139.36 208 -70.72 208 0 208 C0 139.36 0 70.72 0 0 Z M4 212 C4 280.64 4 349.28 4 420 C25.615 420.0825 47.23 420.165 69.5 420.25 C76.29787109 420.28641602 83.09574219 420.32283203 90.09960938 420.36035156 C96.25054529 420.37373815 96.25054529 420.37373815 102.40148926 420.3817749 C105.11859407 420.38787461 107.8349263 420.40031448 110.55187988 420.42230225 C132.10588595 420.73763851 132.10588595 420.73763851 153 416 C154.10533081 415.61152893 155.21066162 415.22305786 156.3494873 414.82281494 C175.94961184 407.57330127 192.60115965 391.49746014 202 373 C207.76444421 360.22054138 210.30848646 348.54570319 210.22705078 334.49389648 C210.22643701 333.13112684 210.22670698 331.76835656 210.2277813 330.4055872 C210.22822989 326.78029777 210.21670015 323.15514234 210.20256042 319.52988434 C210.19110844 316.11891797 210.19063083 312.70798298 210.18920898 309.29699707 C210.1787449 299.34381387 210.15082238 289.39065521 210.125 279.4375 C210.08375 257.183125 210.0425 234.92875 210 212 C142.02 212 74.04 212 4 212 Z " fill="#C57809" transform="translate(253,40)"/>
<path d="M0 0 C7.15801225 5.82628904 13.52591766 12.4382985 20 19 C23.2720594 17.57888017 25.31965496 15.86464013 27.75 13.26953125 C28.4409375 12.54958984 29.131875 11.82964844 29.84375 11.08789062 C31.28711156 9.56477811 32.72458502 8.03606515 34.15625 6.50195312 C34.8471875 5.78587891 35.538125 5.06980469 36.25 4.33203125 C36.87390625 3.66921143 37.4978125 3.0063916 38.140625 2.32348633 C40 1 40 1 42.08691406 1.16259766 C44.91349311 2.39985725 46.62735944 4.34621354 48.75 6.5625 C49.54921875 7.38878906 50.3484375 8.21507812 51.171875 9.06640625 C51.77515625 9.70449219 52.3784375 10.34257812 53 11 C47.17371096 18.15801225 40.5617015 24.52591766 34 31 C35.45745424 34.36335594 37.31117854 36.54534005 39.9140625 39.109375 C40.67460937 39.86347656 41.43515625 40.61757813 42.21875 41.39453125 C43.0128125 42.17183594 43.806875 42.94914062 44.625 43.75 C45.42679688 44.54277344 46.22859375 45.33554687 47.0546875 46.15234375 C49.03202846 48.10614493 51.01388909 50.05512103 53 52 C52.13192399 53.06816445 51.25505217 54.12918085 50.375 55.1875 C49.88773438 55.77917969 49.40046875 56.37085938 48.8984375 56.98046875 C46.48592888 59.54686166 43.70590288 61.74508093 41 64 C34.73 57.73 28.46 51.46 22 45 C18.3904501 46.80477495 16.64371929 48.11925466 13.890625 50.9140625 C13.13652344 51.67460937 12.38242188 52.43515625 11.60546875 53.21875 C10.82816406 54.0128125 10.05085938 54.806875 9.25 55.625 C8.45722656 56.42679687 7.66445312 57.22859375 6.84765625 58.0546875 C4.89385507 60.03202846 2.94487897 62.01388909 1 64 C-0.06816445 63.13192399 -1.12918085 62.25505217 -2.1875 61.375 C-3.07501953 60.64410156 -3.07501953 60.64410156 -3.98046875 59.8984375 C-6.54686166 57.48592888 -8.74508093 54.70590288 -11 52 C-4.73 45.73 1.54 39.46 8 33 C6.19522505 29.3904501 4.88074534 27.64371929 2.0859375 24.890625 C1.32539062 24.13652344 0.56484375 23.38242187 -0.21875 22.60546875 C-1.0128125 21.82816406 -1.806875 21.05085938 -2.625 20.25 C-3.42679687 19.45722656 -4.22859375 18.66445313 -5.0546875 17.84765625 C-7.03202846 15.89385507 -9.01388909 13.94487897 -11 12 C-10.06122074 10.8934059 -9.12079084 9.78821201 -8.1796875 8.68359375 C-7.39440674 7.76018188 -7.39440674 7.76018188 -6.59326172 6.81811523 C-4.4984209 4.42763415 -2.28027529 2.21320837 0 0 Z " fill="#FEFBF8" transform="translate(126,321)"/>
<path d="M0 0 C4.95 0 9.9 0 15 0 C15 9.9 15 19.8 15 30 C24.9 30 34.8 30 45 30 C45 34.95 45 39.9 45 45 C35.1 45 25.2 45 15 45 C15 54.9 15 64.8 15 75 C10.05 75 5.1 75 0 75 C0 65.1 0 55.2 0 45 C-9.9 45 -19.8 45 -30 45 C-30 40.05 -30 35.1 -30 30 C-20.1 30 -10.2 30 0 30 C0 20.1 0 10.2 0 0 Z " fill="#FFFFFF" transform="translate(140,111)"/>
<path d="M0 0 C0.33 0 0.66 0 1 0 C1.00059709 0.57619585 1.00119418 1.1523917 1.00180936 1.74604803 C1.03775063 35.9421418 1.09446206 70.13813392 1.17792095 104.33414439 C1.18793768 108.44566296 1.19778193 112.55718193 1.20751953 116.66870117 C1.2094609 117.48718558 1.21140228 118.30566998 1.21340248 119.14895695 C1.24437233 132.37903236 1.2613891 145.60909045 1.27319422 158.83919526 C1.28563183 172.42771602 1.31319189 186.0161463 1.35461307 199.60460991 C1.379674 207.98061041 1.39312271 216.35646072 1.39142957 224.73249923 C1.39139968 230.4864607 1.40613899 236.24026987 1.43216428 241.99417192 C1.44672479 245.30751072 1.4528884 248.6202771 1.44580269 251.93367958 C1.40529451 271.31444728 1.40529451 271.31444728 6 290 C6.59763342 291.64849111 6.59763342 291.64849111 7.20734024 293.33028507 C15.18365953 314.40287507 31.36623134 329.90306834 51.46484375 339.49609375 C62.6281869 344.24514028 72.94091265 346.14931757 84.97799683 346.14717102 C86.08664412 346.15084771 87.19529141 346.1545244 88.33753407 346.1583125 C92.05429174 346.16932972 95.77102143 346.1731899 99.48779297 346.17700195 C102.15234034 346.18326819 104.81688476 346.18990269 107.48143005 346.19691467 C115.47907283 346.2166426 123.4767168 346.22674144 131.47437781 346.23564246 C135.24689769 346.24003211 139.01941618 346.24539722 142.79193497 346.25063133 C155.34399817 346.2676413 167.89606052 346.28213287 180.44813347 346.28938007 C183.70272701 346.29128976 186.95732055 346.29321012 190.21191406 346.29516602 C191.42518585 346.29589163 191.42518585 346.29589163 192.66296817 346.2966319 C205.74977091 346.30492252 218.83648195 346.33024407 231.9232447 346.36274669 C245.3797014 346.3958931 258.83611162 346.41383574 272.29260933 346.41702431 C279.83953867 346.4191826 287.38633436 346.42783065 294.93322372 346.45348549 C301.36399697 346.47529652 307.79460411 346.48319228 314.22541015 346.47351871 C317.50041267 346.46900357 320.77500513 346.47292164 324.04997444 346.49028015 C351.47340473 346.62742564 374.00376957 341.70347168 394.69140625 322.33984375 C410.50516715 306.31202179 419.32010042 285.93581951 419.2784729 263.47764587 C419.2871615 261.78164579 419.2871615 261.78164579 419.29602563 260.05138308 C419.3129729 256.2789364 419.31589764 252.50661247 419.31884766 248.73413086 C419.32705243 246.02347003 419.33823196 243.31282335 419.34928894 240.60217285 C419.37150902 234.77463738 419.3865538 228.94711931 419.39665604 223.1195507 C419.41127245 214.69398285 419.43681751 206.26847565 419.46498732 197.8429435 C419.51040159 184.17143481 419.54703853 170.49991736 419.578125 156.82836914 C419.60833255 143.5516608 419.64269293 130.27497385 419.68261719 116.99829102 C419.68507874 116.17923174 419.68754028 115.36017247 419.69007643 114.51629322 C419.70245146 110.40710913 419.71490791 106.29792529 419.72740483 102.18874156 C419.83089226 68.12585682 419.92012197 34.06294826 420 0 C420.33 0 420.66 0 421 0 C421.7153072 69.47394783 422.22941749 138.94744331 421.84635669 208.42508811 C421.81822389 213.67123026 421.80016668 218.91734593 421.78640747 224.1635437 C421.76924341 230.57186057 421.7374022 236.97990793 421.6869601 243.38805258 C421.66150267 246.64820767 421.64366106 249.90805278 421.63852692 253.16831207 C421.58098667 281.94171359 415.78300719 304.84718842 395 326 C394.39929688 326.61359375 393.79859375 327.2271875 393.1796875 327.859375 C377.89564079 342.28328055 357.63417568 349.15083273 336.94607544 349.14717102 C335.82926104 349.15084771 334.71244665 349.1545244 333.56178939 349.1583125 C329.81739269 349.16933033 326.07302376 349.17319 322.32861328 349.17700195 C319.64436174 349.18326814 316.96011313 349.18990263 314.27586365 349.19691467 C306.21889513 349.21664312 298.16192543 349.2267415 290.10493881 349.23564246 C286.30452539 349.24003201 282.50411335 349.24539715 278.70370102 349.25063133 C266.05899152 349.26764133 253.41428286 349.28213294 240.76956367 349.28938007 C237.49090702 349.29128977 234.21225038 349.29321013 230.93359375 349.29516602 C230.11876466 349.29564976 229.30393558 349.2961335 228.4644147 349.2966319 C215.28061439 349.30492265 202.0969051 349.33024442 188.91314448 349.36274669 C175.35724671 349.39589205 161.80139506 349.41383564 148.24545658 349.41702431 C140.64263632 349.4191827 133.03994871 349.42783215 125.43716812 349.45348549 C118.95881806 349.47529507 112.48063288 349.48319298 106.00225027 349.47351871 C102.70294563 349.46900317 99.40404807 349.47292348 96.10477638 349.49028015 C67.18494833 349.63382981 44.26589089 343.89410958 23 323 C22.38640625 322.39929688 21.7728125 321.79859375 21.140625 321.1796875 C6.60295031 305.77508726 -0.35704271 285.21848353 -0.24050903 264.31942749 C-0.24307231 262.61602044 -0.24307231 262.61602044 -0.24568737 260.87820113 C-0.24896642 257.0950049 -0.2380046 253.31198832 -0.22705078 249.52880859 C-0.22537053 246.8081552 -0.22671596 244.08750524 -0.22793579 241.36685181 C-0.22898139 235.5207574 -0.22273886 229.67470785 -0.21146011 223.82862473 C-0.19516388 215.37631338 -0.1899929 206.92402359 -0.18748413 198.47169824 C-0.18311348 184.75634775 -0.16982152 171.04102113 -0.15087891 157.32568359 C-0.13250377 144.00732543 -0.11835527 130.68897376 -0.10986328 117.37060547 C-0.10907511 116.13793015 -0.10907511 116.13793015 -0.10827102 114.8803523 C-0.10566083 110.75745502 -0.10313344 106.6345577 -0.10064721 102.51166034 C-0.07993434 68.34108972 -0.04472602 34.17054744 0 0 Z " fill="#010000" transform="translate(43,113)"/>
<path d="M0 0 C24.75 0 49.5 0 75 0 C75 5.61 75 11.22 75 17 C50.25 17 25.5 17 0 17 C0 11.39 0 5.78 0 0 Z " fill="#7C7C7C" transform="translate(323,361)"/>
<path d="M0 0 C24.75 0 49.5 0 75 0 C75 5.28 75 10.56 75 16 C50.25 16 25.5 16 0 16 C0 10.72 0 5.44 0 0 Z " fill="#7A7A7A" transform="translate(323,328)"/>
<path d="M0 0 C24.75 0 49.5 0 75 0 C75 4.95 75 9.9 75 15 C50.25 15 25.5 15 0 15 C0 10.05 0 5.1 0 0 Z " fill="#FFFFFF" transform="translate(322,141)"/>
<path d="M0 0 C2.08082561 4.16165122 -0.90630189 9.84076075 -2.29931641 14.04785156 C-9.76590764 34.85024302 -25.33405531 52.23703256 -45.09472656 62.0390625 C-56.80787037 67.39737654 -56.80787037 67.39737654 -61 66 C-57.57151057 63.82841595 -54.229975 62.24177289 -50.4375 60.8125 C-31.2048553 52.90705709 -16.16362379 37.48369969 -7 19 C-5.56549161 15.40613903 -4.26651039 11.79953117 -3.04296875 8.12890625 C-2.12324304 5.36972911 -1.11001253 2.68713441 0 0 Z " fill="#070707" transform="translate(462,392)"/>
<path d="M0 0 C0.66 0 1.32 0 2 0 C0.50328459 4.49014624 -1.83368341 8.47848764 -5 12 C-5.66 12 -6.32 12 -7 12 C-5.62159784 9.16661778 -4.13581614 6.44311194 -2.5 3.75 C-1.86578125 2.69039063 -1.86578125 2.69039063 -1.21875 1.609375 C-0.61546875 0.81273437 -0.61546875 0.81273437 0 0 Z " fill="#0C0C0C" transform="translate(451,418)"/>
<path d="M0 0 C0 3 0 3 -2.1875 5.48046875 C-3.115625 6.37378906 -4.04375 7.26710938 -5 8.1875 C-5.928125 9.08855469 -6.85625 9.98960937 -7.8125 10.91796875 C-8.534375 11.60503906 -9.25625 12.29210937 -10 13 C-10.66 12.67 -11.32 12.34 -12 12 C-8.27653164 7.57905197 -4.70478962 3.42166518 0 0 Z " fill="#000000" transform="translate(444,430)"/>
</svg>
