<svg xmlns="http://www.w3.org/2000/svg" xmlns:xlink="http://www.w3.org/1999/xlink" version="1.1" x="0px" y="0px" viewBox="0 0 100 125" enable-background="new 0 0 100 100" xml:space="preserve"><g><path d="M74.414,45.64c0.231,0.217,0.35,0.514,0.35,0.804c0,0.279-0.105,0.555-0.311,0.772l-6.133,6.444   l-0.43,0.279c0,0-11.75,4.241-12.224,4.408c-0.362,0.378-34.582,36.311-34.582,36.311c-0.205,0.213-0.485,0.338-0.783,0.342   c-0.293,0.012-0.581-0.102-0.795-0.305L6.624,82.429c-0.231-0.217-0.349-0.516-0.349-0.814c0-0.275,0.106-0.553,0.309-0.768   c0,0,34.222-35.935,34.579-36.309c0.149-0.482,3.81-12.425,3.81-12.425l0.256-0.444l6.137-6.44   c0.425-0.446,1.131-0.462,1.577-0.042L74.414,45.64z M67.89,30.994c0.671,0.637,1.731,0.611,2.367-0.062l12.269-12.879   c0.639-0.667,0.612-1.73-0.057-2.363c-0.668-0.639-1.727-0.615-2.366,0.052L67.833,28.628C67.197,29.297,67.22,30.353,67.89,30.994   z M61.892,25.166c0.838,0.39,1.835,0.026,2.228-0.81l7.973-16.968c0.395-0.838,0.033-1.837-0.804-2.23   c-0.835-0.39-1.832-0.032-2.224,0.808l-7.975,16.97C60.696,23.771,61.056,24.772,61.892,25.166z M93.53,26.341   c-0.435-0.822-1.447-1.131-2.263-0.695l-16.564,8.791c-0.818,0.438-1.127,1.449-0.693,2.262c0.432,0.82,1.448,1.129,2.262,0.697   l16.563-8.794C93.652,28.169,93.961,27.155,93.53,26.341z"/></g></svg>