<svg xmlns="http://www.w3.org/2000/svg" xmlns:xlink="http://www.w3.org/1999/xlink" version="1.1" x="0px" y="0px" viewBox="0 0 64 80" style="enable-background:new 0 0 64 64;" xml:space="preserve"><path d="M13.674,28.208C11.967,30.051,11,32.486,11,35c0,3.609,1.978,6.946,5.099,8.707C16.033,44.144,16,44.577,16,45  c0,4.962,4.037,9,9,9c2.222,0,4.356-0.829,6-2.302C32.644,53.171,34.778,54,37,54c4.963,0,9-4.038,9-9  c0-0.627-0.066-1.253-0.196-1.867C48.444,41.255,50,38.267,50,35c0-2.19-0.723-4.31-2.048-6.048C48.64,27.748,49,26.396,49,25  c0-3.262-2.026-6.21-5.011-7.417C43.771,13.365,40.271,10,36,10c-1.842,0-3.586,0.618-5,1.757C29.586,10.618,27.842,10,26,10  c-4.271,0-7.771,3.365-7.989,7.583C15.026,18.79,13,21.738,13,25C13,26.104,13.231,27.199,13.674,28.208z M19.298,19.249  c0.126-0.037,0.235-0.102,0.333-0.18C20.983,19.36,22,20.562,22,22h2c0-2.388-1.686-4.385-3.928-4.878C20.499,14.229,22.99,12,26,12  c1.494,0,2.897,0.548,4,1.541V19h2v-5.459C33.103,12.548,34.506,12,36,12c3.309,0,6,2.691,6,6c0,1.654-1.346,3-3,3h-1v2h1  c2.175,0,4.011-1.405,4.697-3.348C45.682,20.659,47,22.725,47,25c0,1.064-0.295,2.086-0.828,3H44v2h2.223  C47.367,31.422,48,33.179,48,35c0,2.812-1.443,5.368-3.86,6.835C44.065,41.88,44.007,41.94,43.948,42H43c-2.757,0-5,2.243-5,5v2h2  v-2c0-1.654,1.346-3,3-3h0.926C43.974,44.331,44,44.665,44,45c0,3.86-3.141,7-7,7c-1.885,0-3.684-0.776-5-2.127V46h-2v3.873  C28.684,51.224,26.885,52,25,52c-3.859,0-7-3.14-7-7c0-0.368,0.044-0.749,0.109-1.134C20.332,43.359,22,41.374,22,39h-2  c0,1.6-1.263,2.9-2.843,2.984C14.622,40.585,13,37.911,13,35c0-2.243,0.912-4.324,2.567-5.859c0.045-0.041,0.073-0.093,0.108-0.141  H18v-2h-2.644C15.128,26.358,15,25.683,15,25C15,22.362,16.768,19.997,19.298,19.249z"/><path d="M24,38c0,0.552,0.447,1,1,1h1v3h2v-3h2v3h2v-3h2v3h2v-3h1c0.553,0,1-0.448,1-1v-1h3v-2h-3v-2h3v-2h-3v-2h3v-2h-3v-1  c0-0.552-0.447-1-1-1h-1v-3h-2v3h-2v-3h-2v3h-2v-3h-2v3h-1c-0.553,0-1,0.448-1,1v1h-3v2h3v2h-3v2h3v2h-3v2h3V38z M26,27h10v10H26V27  z"/><path d="M33,29h-4c-0.553,0-1,0.448-1,1v4c0,0.552,0.447,1,1,1h4c0.553,0,1-0.448,1-1v-4C34,29.448,33.553,29,33,29z M32,33h-2v-2h2  V33z"/><path d="M61,62v-6c0-0.552-0.447-1-1-1h-6c-0.553,0-1,0.448-1,1v6c0,0.552,0.447,1,1,1h6C60.553,63,61,62.552,61,62z M59,61h-4v-4h4  V61z"/><path d="M54,9h6c0.553,0,1-0.448,1-1V2c0-0.552-0.447-1-1-1h-6c-0.553,0-1,0.448-1,1v6C53,8.552,53.447,9,54,9z M55,3h4v4h-4V3z"/><path d="M2,63h6c0.553,0,1-0.448,1-1v-6c0-0.552-0.447-1-1-1H2c-0.553,0-1,0.448-1,1v6C1,62.552,1.447,63,2,63z M3,57h4v4H3V57z"/><path d="M2,9h6c0.553,0,1-0.448,1-1V2c0-0.552-0.447-1-1-1H2C1.447,1,1,1.448,1,2v6C1,8.552,1.447,9,2,9z M3,3h4v4H3V3z"/><path d="M54.4,40.2l-4,3C50.148,43.389,50,43.685,50,44s0.148,0.611,0.4,0.8l4,3l1.199-1.6L54,45h3v8h2v-9c0-0.552-0.447-1-1-1h-4  l1.6-1.2L54.4,40.2z"/><path d="M8.6,47.8l4-3c0.252-0.188,0.4-0.485,0.4-0.8s-0.148-0.611-0.4-0.8l-4-3L7.4,41.8L9,43H5c-0.553,0-1,0.448-1,1v9h2v-8h3  l-1.6,1.2L8.6,47.8z"/><path d="M53.4,23.8l1.199-1.6L53,21h4c0.553,0,1-0.448,1-1v-9h-2v8h-3l1.6-1.2L53.4,16.2l-4,3C49.148,19.389,49,19.685,49,20  s0.148,0.611,0.4,0.8L53.4,23.8z"/><path d="M7.4,17.8L9,19H6v-8H4v9c0,0.552,0.447,1,1,1h4l-1.6,1.2L8.6,23.8l4-3c0.252-0.188,0.4-0.485,0.4-0.8s-0.148-0.611-0.4-0.8  l-4-3L7.4,17.8z"/></svg>